 <svg  version="1.0" xmlns="http://www.w3.org/2000/svg"  width="600.000000pt" height="600.000000pt" viewBox="0 0 600.000000 600.000000"  preserveAspectRatio="xMidYMid meet">  <g transform="translate(0.000000,600.000000) scale(0.100000,-0.100000)" fill="#606060" stroke="none"> <path d="M5570 5963 c0 -21 7 -87 16 -148 9 -60 18 -145 20 -188 1 -43 10 -131 20 -195 9 -64 18 -148 20 -187 3 -38 11 -131 19 -205 9 -74 24 -218 35 -320 11 -102 24 -221 30 -265 6 -44 16 -125 22 -180 10 -100 12 -121 22 -308 2 -54 10 -104 15 -111 6 -7 8 -16 4 -19 -11 -12 -23 -8 -23 7 0 8 -8 13 -17 12 -12 -1 -19 7 -21 22 -2 13 -10 26 -18 29 -8 3 -14 18 -14 33 0 31 -25 97 -45 120 -7 8 -15 25 -17 38 -1 12 -7 23 -13 23 -15 0 -18 -50 -4 -68 15 -17 39 -80 39 -103 0 -8 7 -28 15 -43 8 -15 17 -44 21 -64 4 -20 13 -48 20 -62 8 -14 14 -40 14 -57 0 -16 5 -35 11 -41 5 -5 13 -37 16 -69 3 -32 9 -63 13 -69 4 -5 11 -46 15 -90 4 -44 11 -87 16 -97 5 -9 14 -72 21 -140 20 -214 9 -564 -20 -615 -7 -12 -12 -56 -12 -101 0 -100 -10 -111 -67 -74 -60 39 -78 92 -32 92 14 0 19 7 19 29 0 34 -30 91 -47 91 -7 0 -13 9 -13 19 0 11 -7 32 -15 48 -8 15 -25 52 -37 81 -13 28 -29 52 -37 52 -10 0 -12 9 -7 36 5 25 2 43 -9 60 -9 14 -19 48 -22 77 -4 32 -13 57 -23 64 -11 8 -16 21 -13 36 3 14 0 28 -6 31 -6 4 -11 17 -11 29 0 12 -9 36 -20 52 -11 17 -20 38 -20 48 0 10 -18 57 -40 103 -29 61 -41 102 -44 142 -1 32 -11 75 -20 96 -20 48 -23 62 -31 149 -5 65 -5 68 19 77 16 6 27 20 31 37 3 15 10 48 16 73 18 72 23 266 9 365 -6 50 -14 113 -17 141 l-5 51 38 -6 c33 -5 39 -10 39 -31 0 -28 41 -87 52 -76 12 11 -48 114 -70 120 -15 4 -18 10 -12 34 4 18 2 33 -5 37 -6 3 -24 35 -41 69 -27 55 -63 105 -114 157 -8 9 -15 25 -15 36 0 24 -59 103 -77 103 -7 0 -13 7 -13 15 0 8 -11 22 -25 31 -14 9 -25 23 -25 30 0 18 -78 94 -96 94 -7 0 -22 13 -34 30 -12 16 -45 46 -74 65 -30 20 -56 44 -59 54 -3 12 -18 21 -41 25 -26 5 -40 15 -51 36 -9 17 -22 30 -30 30 -8 0 -20 9 -27 20 -7 11 -17 20 -22 20 -5 0 -39 20 -77 45 -38 25 -72 45 -77 45 -5 0 -16 7 -23 17 -15 17 -151 83 -173 83 -8 0 -19 7 -26 15 -7 8 -19 15 -27 15 -8 0 -29 6 -46 14 -18 7 -50 18 -72 24 -86 22 -131 35 -159 43 -16 5 -40 9 -54 9 -27 0 -85 16 -116 33 -11 5 -48 12 -83 15 -54 4 -63 2 -63 -12 0 -13 11 -16 59 -16 40 0 63 -5 71 -15 7 -9 29 -15 52 -15 34 0 39 -3 36 -21 -2 -11 -16 -28 -33 -37 -16 -9 -32 -20 -35 -24 -11 -14 -67 -20 -74 -9 -9 14 -46 15 -46 1 0 -5 9 -10 20 -10 28 0 25 -14 -5 -28 -16 -7 -23 -17 -19 -27 8 -19 58 -20 74 0 7 8 17 15 22 15 22 0 108 46 113 61 9 27 50 40 72 24 10 -8 30 -15 44 -15 15 0 32 -7 39 -15 7 -8 25 -15 41 -15 18 0 32 -7 39 -20 6 -12 29 -25 55 -31 24 -6 51 -20 61 -30 9 -10 21 -19 26 -19 11 0 126 -56 163 -80 17 -11 39 -24 50 -30 39 -21 62 -36 91 -58 16 -12 71 -53 122 -91 169 -125 375 -321 411 -391 10 -19 28 -69 40 -110 33 -108 53 -160 62 -160 17 0 19 21 4 62 -26 74 -21 84 25 47 25 -20 40 -41 40 -54 0 -13 7 -28 15 -35 25 -21 19 -84 -12 -120 -26 -31 -26 -33 -8 -46 28 -21 40 -192 20 -297 -8 -43 -15 -94 -15 -113 0 -19 -13 -74 -30 -124 -16 -50 -30 -97 -30 -105 0 -8 -7 -30 -17 -49 -16 -34 -15 -36 11 -89 23 -45 26 -58 16 -76 -20 -38 -16 -151 8 -196 11 -22 32 -67 47 -100 14 -33 32 -73 40 -90 7 -16 21 -48 30 -70 9 -22 23 -53 31 -68 8 -16 14 -34 14 -42 0 -7 7 -18 15 -25 8 -7 15 -22 15 -34 0 -12 4 -26 9 -32 5 -5 41 -85 81 -179 40 -93 76 -174 81 -180 5 -5 9 -19 9 -31 0 -12 7 -27 15 -34 8 -7 15 -20 15 -29 0 -22 59 -139 93 -183 27 -35 28 -38 13 -67 -9 -16 -16 -40 -16 -53 -1 -13 -7 -34 -15 -48 -8 -14 -15 -36 -15 -50 0 -14 -7 -34 -15 -44 -8 -11 -15 -27 -15 -37 0 -9 -7 -30 -15 -45 -8 -16 -15 -38 -15 -49 0 -11 -7 -29 -15 -39 -8 -11 -15 -28 -15 -38 0 -28 -29 -34 -52 -11 -17 17 -18 24 -8 43 9 17 9 25 -3 38 -13 15 -53 149 -77 259 -5 23 -16 66 -25 95 -9 29 -20 67 -25 83 -41 143 -53 183 -60 200 -5 11 -13 36 -19 55 -5 19 -23 75 -41 124 -33 94 -46 138 -90 306 -23 86 -31 105 -46 105 -17 0 -19 -10 -21 -120 -2 -205 -23 -383 -59 -495 -8 -25 -14 -59 -14 -77 0 -17 -4 -35 -10 -38 -5 -3 -10 -26 -10 -49 0 -27 -6 -48 -15 -56 -9 -8 -15 -30 -15 -57 0 -28 -8 -60 -22 -84 -19 -35 -21 -44 -11 -82 13 -47 10 -57 -18 -57 -21 0 -25 -20 -7 -38 8 -8 5 -14 -15 -21 -29 -11 -31 -19 -27 -95 2 -48 2 -49 -24 -42 -31 8 -34 -6 -10 -52 16 -33 12 -52 -11 -52 -8 0 -17 -11 -21 -25 -3 -14 -15 -32 -26 -40 -20 -13 -19 -14 13 -19 19 -3 52 -7 74 -10 50 -5 128 -25 135 -34 17 -23 118 -57 308 -103 32 -8 43 -16 48 -36 5 -20 0 -30 -31 -56 -35 -28 -36 -31 -19 -44 24 -18 54 -16 54 3 0 8 11 31 25 51 13 20 22 40 19 45 -7 12 24 64 79 131 36 44 47 66 47 93 0 36 -2 37 -37 28 -18 -5 -23 -14 -23 -40 0 -18 -4 -36 -10 -39 -5 -3 -10 -17 -10 -30 0 -14 -8 -29 -19 -34 -10 -6 -26 -26 -35 -46 -20 -42 -52 -49 -42 -10 7 29 -15 45 -38 26 -10 -9 -15 -8 -19 2 -6 16 35 65 51 59 18 -6 15 25 -3 32 -9 3 -24 -3 -35 -14 -11 -11 -25 -20 -31 -20 -6 0 -9 -7 -5 -15 3 -9 0 -15 -9 -15 -20 0 -65 22 -65 32 0 4 -22 8 -49 8 -39 0 -56 6 -86 30 -21 16 -54 34 -74 40 -51 14 -57 20 -64 62 -4 29 -3 36 9 31 10 -4 12 0 8 11 -3 9 -2 22 4 29 6 6 13 29 17 51 4 21 18 57 31 80 23 43 64 194 64 240 0 15 6 29 13 32 8 2 14 19 14 37 0 18 6 48 13 67 7 19 16 44 20 55 5 11 13 35 20 53 7 17 19 32 27 32 17 0 31 -32 15 -38 -15 -5 -16 -52 -2 -52 6 0 13 7 16 15 4 8 13 15 21 15 12 0 14 -8 9 -35 -8 -40 9 -115 26 -115 13 0 3 146 -11 164 -5 6 -12 31 -15 56 -4 25 -11 54 -16 65 -12 29 -31 103 -40 160 -17 109 -20 129 -14 115 4 -8 12 -28 19 -45 7 -16 20 -52 29 -80 8 -27 28 -86 42 -130 15 -44 32 -102 39 -130 7 -27 29 -111 48 -185 39 -145 82 -318 92 -363 7 -34 36 -60 73 -67 20 -4 29 -13 37 -38 9 -33 45 -47 45 -17 0 8 9 23 21 33 11 9 25 26 30 37 4 11 22 43 39 70 38 63 80 151 80 169 0 7 9 39 20 72 12 35 23 96 25 149 3 50 8 104 12 120 4 17 6 37 4 46 -1 9 5 21 13 28 13 11 13 17 0 47 -8 20 -12 43 -9 53 9 29 19 278 19 464 0 97 1 177 3 177 2 0 21 -18 43 -40 37 -37 80 -53 80 -30 0 6 -9 10 -19 10 -11 0 -22 8 -25 18 -3 9 -5 89 -5 177 1 88 -4 184 -10 214 -6 29 -11 86 -11 125 0 39 -7 109 -15 156 -8 47 -15 113 -15 147 0 34 -7 97 -15 140 -8 43 -15 105 -15 138 0 33 -7 98 -15 145 -8 47 -15 112 -15 145 -1 33 -7 96 -15 140 -8 44 -15 110 -15 147 0 36 -7 102 -15 145 -8 43 -15 105 -15 138 0 33 -7 98 -15 145 -8 47 -15 110 -15 140 0 30 -7 93 -15 140 -8 47 -15 114 -15 150 -1 36 -7 101 -15 145 -8 44 -15 101 -15 128 l0 47 -60 0 -60 0 0 -37z"/> <path d="M2530 5948 c-36 -4 -121 -12 -190 -17 -69 -4 -163 -13 -210 -20 -142 -18 -269 -31 -390 -41 -63 -5 -135 -13 -160 -19 -25 -6 -74 -11 -110 -11 -36 0 -103 -7 -150 -15 -47 -8 -110 -15 -140 -15 -30 0 -95 -7 -145 -15 -49 -8 -119 -15 -155 -15 -36 0 -94 -7 -130 -15 -36 -8 -96 -14 -135 -15 -38 0 -108 -7 -155 -15 -47 -8 -113 -15 -147 -15 -34 0 -97 -7 -140 -15 -43 -8 -99 -15 -125 -15 l-48 0 0 -60 0 -60 43 0 c23 0 60 5 82 10 22 5 112 14 200 20 88 6 174 15 190 20 17 5 81 11 143 14 63 4 144 11 180 16 37 5 119 14 182 20 63 5 176 17 250 25 74 8 180 20 235 25 204 20 310 33 320 40 6 3 63 4 128 2 101 -4 118 -7 115 -20 -2 -9 -19 -20 -38 -26 l-35 -10 33 -4 c21 -2 40 3 51 12 12 11 37 16 73 16 37 0 60 5 68 15 8 9 30 15 59 15 26 0 51 4 56 8 14 12 88 32 117 32 14 0 31 7 38 15 10 12 24 14 61 9 34 -5 60 -2 89 10 22 9 53 16 68 16 15 0 38 9 52 20 14 11 30 20 37 20 13 0 73 48 73 58 0 9 -259 9 -340 0z m-355 -158 c3 -6 -1 -13 -10 -16 -19 -8 -30 0 -20 15 8 14 22 14 30 1z"/> <path d="M3554 5673 c-30 -30 -48 -38 -88 -44 -28 -3 -54 -2 -57 3 -3 5 -52 11 -110 15 -92 6 -103 4 -92 -9 21 -25 -5 -70 -36 -65 -29 6 -71 -8 -71 -23 0 -5 9 -10 20 -10 23 0 106 19 135 31 11 4 34 11 52 14 29 6 33 4 39 -19 6 -23 11 -26 54 -26 30 0 52 6 60 15 7 8 28 17 47 21 25 5 41 16 58 44 16 26 34 40 54 45 27 6 29 9 18 26 -18 28 -42 23 -83 -18z"/> <path d="M1878 5669 c-27 -15 -21 -31 10 -27 15 2 27 9 27 17 0 19 -16 23 -37 10z"/> <path d="M1790 5620 c0 -5 7 -10 15 -10 8 0 15 5 15 10 0 6 -7 10 -15 10 -8 0 -15 -4 -15 -10z"/> <path d="M2932 5622 c-7 -5 -10 -16 -7 -24 4 -9 0 -18 -10 -22 -21 -8 -49 -76 -37 -88 6 -6 25 -1 51 12 42 23 54 53 29 78 -8 8 -4 14 16 24 25 11 26 13 9 19 -24 10 -36 10 -51 1z"/> <path d="M2798 5609 c-29 -17 -20 -29 21 -29 36 0 59 18 44 34 -10 9 -46 7 -65 -5z"/> <path d="M1615 5546 c-37 -13 -61 -28 -63 -39 -4 -20 5 -21 38 -2 14 8 35 14 47 15 12 0 34 11 49 25 23 21 24 25 8 24 -10 -1 -46 -11 -79 -23z"/> <path d="M3055 5545 c-3 -8 -7 -22 -10 -30 -3 -10 2 -15 15 -15 16 0 20 7 20 30 0 31 -17 41 -25 15z"/> <path d="M2707 5526 c-19 -13 -38 -22 -41 -19 -2 3 -10 2 -16 -2 -19 -12 9 -25 51 -25 44 0 85 29 76 53 -9 23 -28 21 -70 -7z"/> <path d="M4020 5525 c0 -34 -38 -146 -56 -166 -8 -8 -14 -22 -14 -29 0 -7 -7 -22 -16 -32 -16 -16 -15 -18 0 -24 25 -10 63 31 70 75 3 21 12 44 21 51 8 6 26 32 40 57 26 47 23 74 -11 87 -27 10 -34 7 -34 -19z"/> <path d="M1470 5465 c-7 -9 -11 -18 -8 -20 7 -8 68 16 68 26 0 15 -47 10 -60 -6z"/> <path d="M2657 5449 c-39 -23 14 -40 55 -18 17 9 18 13 7 20 -18 11 -40 11 -62 -2z"/> <path d="M1395 5420 c-11 -18 5 -31 26 -20 11 6 17 15 14 21 -8 12 -32 12 -40 -1z"/> <path d="M2599 5408 c-1 -7 -1 -18 0 -25 1 -6 -3 -14 -9 -18 -24 -15 -9 -35 24 -35 42 0 54 15 26 30 -12 6 -20 21 -20 35 0 25 -19 36 -21 13z"/> <path d="M1326 5365 c-11 -8 -17 -17 -14 -21 7 -6 48 17 48 28 0 12 -13 9 -34 -7z"/> <path d="M1249 5309 c-13 -12 -34 -25 -46 -30 -13 -5 -23 -13 -23 -19 0 -21 28 -9 69 30 43 41 43 57 0 19z"/> <path d="M1115 5210 c-14 -16 -15 -20 -4 -20 16 0 39 19 39 32 0 14 -16 9 -35 -12z"/> <path d="M2465 5199 c-8 -12 24 -51 36 -43 5 3 9 16 9 30 0 17 -5 24 -19 24 -11 0 -23 -5 -26 -11z"/> <path d="M1057 5158 c-10 -11 -16 -22 -14 -25 9 -9 47 17 47 32 0 20 -11 18 -33 -7z"/> <path d="M2130 5160 c-1 -8 -4 -26 -5 -40 -2 -14 -8 -41 -15 -60 -7 -19 -15 -39 -16 -45 -2 -5 -8 -17 -14 -25 -25 -39 -50 -113 -50 -148 0 -23 -6 -45 -15 -52 -8 -7 -15 -24 -15 -39 0 -15 -6 -36 -14 -47 -36 -51 -71 -184 -87 -329 -5 -49 -15 -126 -22 -170 l-12 -80 -60 -7 c-98 -11 -129 -22 -140 -46 -5 -12 -13 -22 -18 -22 -20 0 -57 -51 -57 -79 0 -16 -4 -33 -10 -36 -5 -3 -14 -24 -20 -46 -9 -31 -8 -44 3 -60 8 -11 12 -29 10 -40 -12 -44 -16 -44 -802 -54 -256 -4 -469 -9 -473 -12 -5 -2 -4 -11 2 -18 14 -17 -14 -72 -40 -79 -63 -18 -79 -17 -92 3 -12 20 -48 30 -48 14 0 -5 -20 -35 -45 -68 -25 -33 -45 -68 -45 -78 0 -11 -7 -33 -15 -51 -13 -28 -15 -79 -11 -342 5 -340 19 -620 35 -703 6 -29 11 -81 11 -115 0 -33 7 -99 15 -146 8 -47 15 -114 15 -150 1 -36 7 -101 15 -145 8 -44 15 -108 15 -142 0 -34 7 -97 15 -140 8 -43 15 -105 15 -138 0 -33 7 -100 15 -150 8 -49 15 -115 15 -147 0 -31 7 -92 15 -135 8 -43 15 -107 15 -143 1 -36 5 -85 10 -110 6 -25 14 -106 20 -180 5 -74 14 -151 20 -170 5 -19 10 -67 10 -107 0 -39 7 -107 15 -150 8 -43 15 -90 15 -105 0 -27 2 -28 56 -28 l57 0 -8 78 c-4 42 -9 91 -10 107 -1 17 -5 38 -10 48 -4 9 -5 26 -2 38 5 20 -18 306 -27 337 -5 16 -10 66 -36 325 -6 56 -12 116 -15 132 -2 17 -6 59 -10 95 -8 89 -34 328 -46 425 -5 44 -12 145 -15 225 -2 80 -10 178 -16 218 -8 55 -8 76 0 84 16 16 15 28 -3 28 -19 0 -20 24 -1 39 13 11 31 9 73 -12 23 -10 33 -8 95 24 40 20 67 2 31 -21 -14 -8 -6 -9 32 -5 28 3 61 2 75 -3 16 -6 33 -5 49 2 19 8 25 8 29 -2 6 -19 30 -14 37 8 7 22 21 26 27 8 6 -17 156 8 180 29 12 11 28 14 48 10 32 -7 41 8 17 32 -10 11 -8 12 11 6 29 -8 62 2 62 21 0 8 -10 14 -25 14 -20 0 -25 5 -25 25 0 23 4 25 48 27 26 1 67 1 90 -1 29 -1 42 1 37 8 -3 6 -15 11 -26 11 -11 0 -30 7 -44 16 -21 14 -26 14 -55 -1 -18 -9 -39 -13 -48 -9 -10 4 -23 6 -30 5 -7 -1 -22 5 -34 14 -13 8 -31 15 -41 15 -28 0 -97 39 -97 55 0 8 -9 19 -20 25 -11 6 -20 18 -20 27 0 9 -7 25 -16 35 -14 15 -15 20 -4 33 7 9 13 34 12 55 -2 32 2 40 16 40 14 0 15 2 2 10 -45 29 94 87 144 60 17 -8 29 -9 42 -2 12 6 98 9 219 7 335 -6 419 -19 386 -59 -7 -9 -9 -16 -4 -16 11 0 33 -43 33 -65 0 -7 -9 -17 -20 -20 -26 -8 -26 -31 1 -45 18 -10 19 -13 6 -28 -8 -9 -12 -22 -10 -29 6 -17 -37 -63 -59 -63 -28 0 -78 -28 -78 -44 0 -7 7 -19 15 -26 8 -7 15 -23 15 -36 0 -19 -6 -23 -35 -26 -45 -4 -46 -23 -1 -23 18 0 40 -6 49 -14 9 -7 26 -11 36 -8 13 3 18 0 15 -8 -6 -14 33 -28 42 -14 7 12 77 7 89 -7 13 -15 83 -25 90 -13 11 16 44 10 64 -13 17 -18 23 -19 36 -8 13 11 14 10 9 -3 -3 -9 5 -37 20 -62 20 -37 23 -50 14 -64 -8 -13 -8 -33 -1 -69 6 -31 6 -77 1 -123 -5 -41 -7 -98 -5 -127 5 -44 3 -54 -14 -62 -15 -8 -17 -15 -10 -29 8 -13 4 -24 -16 -45 -14 -15 -22 -30 -18 -34 3 -4 26 -7 50 -7 25 -1 47 -4 51 -7 12 -13 -8 -49 -32 -58 -20 -8 -23 -14 -16 -27 9 -18 25 -138 23 -178 0 -11 4 -42 9 -70 5 -27 12 -80 14 -118 3 -37 10 -76 16 -88 6 -11 18 -57 26 -102 24 -134 26 -141 39 -157 13 -17 39 -73 50 -107 3 -13 10 -23 15 -23 5 0 12 -15 16 -34 4 -24 10 -33 20 -29 16 6 94 -73 94 -95 0 -15 185 -202 200 -202 5 0 13 -6 17 -12 4 -7 37 -26 73 -43 36 -16 72 -35 81 -42 8 -7 22 -13 31 -13 24 0 78 -21 78 -30 0 -5 -9 -12 -21 -15 -29 -10 -18 -30 18 -30 16 -1 42 -8 56 -18 15 -9 36 -17 48 -17 13 0 42 -9 65 -20 39 -19 56 -21 221 -16 251 6 530 23 545 32 7 4 64 11 128 15 63 4 156 12 205 18 50 6 131 15 180 21 50 6 142 15 205 20 63 5 135 13 160 19 25 6 77 11 115 11 39 0 106 7 150 15 44 8 107 15 140 15 33 0 98 7 145 15 47 8 110 15 142 15 31 0 92 7 135 15 43 8 108 15 145 15 36 0 102 7 145 15 43 8 107 15 143 15 36 1 101 7 145 15 44 8 104 15 133 15 l52 0 0 61 0 62 -57 -7 c-70 -8 -234 -24 -323 -32 -36 -3 -87 -7 -115 -10 -27 -2 -86 -9 -130 -14 -44 -6 -89 -11 -100 -11 -32 -1 -198 -19 -335 -35 -69 -8 -172 -19 -230 -24 -58 -5 -121 -14 -140 -20 -19 -6 -69 -10 -111 -9 -41 1 -84 -3 -96 -9 -22 -12 -97 -10 -126 3 -11 4 -28 2 -43 -5 -13 -8 -27 -10 -31 -7 -8 9 44 57 63 57 7 0 14 5 14 11 0 18 58 69 72 64 8 -3 34 12 59 34 33 30 41 42 33 51 -9 9 -17 9 -33 0 -17 -9 -22 -8 -27 5 -4 9 1 24 10 34 9 10 16 23 16 29 0 6 8 13 18 16 19 6 49 52 69 104 6 18 19 42 28 54 8 13 15 33 15 45 0 13 5 23 10 23 6 0 10 -4 10 -10 0 -15 27 -12 33 4 3 8 -1 22 -8 33 -20 26 -18 36 5 30 21 -5 23 1 20 60 -1 23 6 40 24 58 14 14 26 30 26 35 0 14 18 12 22 -2 2 -6 9 -9 15 -5 7 4 8 21 2 49 -12 61 -11 120 1 113 6 -3 10 -15 10 -26 0 -10 5 -19 10 -19 15 0 13 107 -2 113 -10 3 -10 9 -2 23 8 13 8 24 1 35 -8 13 -5 24 10 44 l20 28 -21 33 c-15 24 -29 33 -48 34 -16 0 -28 3 -28 8 0 4 -5 14 -10 22 -9 12 -17 7 -49 -30 l-40 -45 -42 43 c-43 43 -64 52 -72 30 -3 -10 -9 -10 -25 -1 -29 17 -39 -2 -16 -28 11 -12 26 -18 38 -15 11 3 30 -4 44 -15 14 -10 31 -19 39 -19 8 0 13 -7 11 -17 -3 -14 -15 -17 -73 -18 -68 0 -70 -1 -93 -35 -13 -19 -32 -38 -43 -42 -25 -10 -24 -35 1 -43 25 -8 26 -25 1 -25 -33 0 -52 -12 -62 -37 -8 -22 -13 -24 -45 -18 -30 5 -36 3 -41 -14 -5 -18 -51 -57 -57 -49 -2 2 -8 17 -13 33 l-11 30 -7 -27 c-5 -19 -2 -32 9 -43 9 -9 16 -22 16 -30 0 -7 7 -15 15 -19 27 -10 17 -42 -20 -62 -36 -19 -42 -28 -25 -39 6 -3 10 -20 10 -37 0 -22 4 -29 15 -25 8 4 17 2 20 -3 4 -6 1 -10 -4 -10 -6 0 -11 -11 -11 -24 0 -34 -16 -41 -31 -15 l-11 22 -19 -24 c-11 -13 -23 -37 -27 -54 -12 -44 -36 -38 -43 10 -7 44 -12 38 -9 -10 1 -37 -26 -66 -93 -95 -45 -20 -50 -20 -66 -6 -20 18 -41 21 -41 6 0 -5 -8 -10 -19 -10 -10 0 -25 -7 -32 -16 -12 -15 -15 -14 -31 6 -13 16 -22 20 -31 12 -8 -7 -18 -6 -31 4 -11 8 -32 14 -48 14 -18 0 -31 7 -39 21 -11 21 -11 20 -38 -12 -25 -30 -30 -32 -67 -24 -21 4 -54 7 -71 7 -31 -1 -33 2 -33 33 0 19 4 37 10 40 12 7 13 35 2 35 -4 0 -19 -18 -32 -40 -19 -29 -32 -40 -51 -40 -29 0 -79 34 -79 55 0 7 -13 18 -30 24 -25 8 -30 16 -30 41 0 34 23 86 41 92 6 2 9 15 7 28 -3 25 -3 25 -18 -5 -8 -16 -25 -34 -38 -40 -15 -7 -22 -18 -22 -37 0 -33 -5 -36 -52 -31 l-38 5 0 49 c0 36 4 51 16 56 10 4 14 13 10 29 -4 15 0 29 12 41 10 10 22 26 25 36 4 9 15 17 25 17 13 0 24 12 32 33 7 17 22 39 33 48 26 21 14 39 -28 39 -22 0 -35 6 -40 17 -6 17 -7 17 -16 1 -7 -13 -22 -18 -54 -18 -39 0 -47 -4 -76 -41 -32 -40 -32 -41 -8 -34 13 4 29 14 36 22 10 13 15 13 27 4 8 -7 25 -9 40 -5 24 6 26 4 26 -25 0 -21 -10 -41 -35 -65 -19 -20 -35 -41 -35 -47 0 -8 -7 -6 -19 5 -11 10 -17 25 -14 37 5 20 -11 27 -22 9 -9 -14 -65 17 -65 35 0 8 -4 15 -8 15 -17 0 -42 -37 -42 -63 0 -29 -14 -36 -24 -12 -3 8 -12 15 -21 15 -10 0 -15 10 -15 31 0 28 -3 31 -24 25 -20 -5 -25 -1 -30 20 -9 33 -3 39 22 25 34 -18 49 -12 23 10 -20 16 -23 24 -14 37 8 13 6 20 -6 28 -12 10 -17 8 -26 -10 -15 -29 -55 -34 -62 -7 -3 12 -12 21 -19 21 -8 0 -17 8 -20 18 -3 9 -11 27 -17 39 -13 28 -7 34 35 36 l33 2 -3 -50 c-2 -47 -2 -49 13 -30 9 11 24 19 34 17 10 -2 21 4 24 13 4 10 19 15 43 15 30 0 44 7 76 41 37 39 38 41 14 35 -59 -15 -114 -18 -120 -7 -4 6 -12 11 -18 11 -7 0 -6 -5 2 -15 13 -15 6 -65 -9 -65 -5 0 -11 13 -14 29 -5 24 -10 28 -31 24 -17 -4 -28 0 -32 10 -5 13 -10 13 -40 -5 -20 -12 -39 -17 -44 -12 -10 11 -1 74 11 74 5 0 9 7 9 15 0 8 16 27 36 42 81 62 104 87 94 103 -7 12 -12 12 -22 2 -17 -17 -38 -15 -38 3 0 16 -18 19 -38 7 -7 -5 -15 -32 -19 -60 -5 -42 -9 -52 -24 -52 -14 0 -19 7 -19 25 l0 25 -21 -21 -21 -21 21 -19 c12 -11 21 -25 21 -31 0 -7 -7 -3 -15 8 -14 19 -15 19 -33 -5 -24 -30 -56 -25 -60 11 -2 15 -10 32 -18 38 -8 7 -14 25 -14 41 0 19 -5 29 -15 29 -8 0 -15 9 -15 20 0 23 28 27 36 5 5 -11 11 -12 25 -4 11 5 23 8 27 5 5 -3 6 9 4 25 -3 17 -11 33 -18 36 -18 7 -18 22 0 42 13 14 12 19 -9 39 l-24 23 -15 -36 c-16 -39 -67 -95 -86 -95 -7 0 -10 13 -8 33 2 27 -1 33 -19 35 -25 4 -31 34 -13 62 6 10 3 20 -11 33 -20 18 -21 19 -35 1 -8 -11 -19 -29 -24 -41 -13 -30 -38 -29 -46 2 -5 20 2 32 37 66 41 39 43 40 51 20 4 -12 11 -21 16 -21 17 0 63 76 56 93 -9 23 -19 21 -32 -7 -13 -29 -49 -40 -60 -19 -7 12 -17 10 -59 -16 -57 -35 -63 -37 -63 -17 0 7 -7 19 -15 26 -8 7 -15 21 -15 31 0 10 -13 25 -30 34 -25 13 -30 22 -30 51 0 22 -6 37 -15 40 -8 4 -15 12 -15 19 0 7 -7 18 -15 25 -8 7 -15 25 -15 40 0 15 -6 33 -14 39 -12 10 -22 85 -27 199 -1 13 11 34 25 47 20 19 25 29 18 42 -5 10 -8 54 -8 98 1 74 3 80 23 83 48 7 59 67 13 67 -24 0 -25 2 -22 56 2 40 -1 59 -11 68 -11 8 -13 19 -7 39 19 62 28 119 23 143 -3 15 0 36 6 47 9 17 8 23 -7 34 -16 11 -17 24 -12 103 4 51 12 100 20 112 12 18 12 25 2 35 -14 14 -16 64 -3 72 4 3 11 37 14 77 3 39 10 76 15 82 5 7 12 23 15 37 3 14 19 63 36 110 17 47 31 95 31 108 0 13 5 32 11 43 6 11 15 44 20 72 6 29 12 63 15 77 4 18 -1 29 -17 38 -26 16 -34 8 -44 -47 -4 -19 -15 -47 -26 -62 -10 -15 -19 -42 -19 -61 0 -34 -14 -98 -30 -133 -5 -11 -11 -31 -13 -45 -11 -53 -40 -157 -54 -191 -9 -21 -12 -49 -9 -65 4 -18 0 -40 -9 -58 -19 -36 -19 -50 1 -67 14 -12 14 -14 -2 -26 -13 -9 -18 -25 -17 -53 1 -22 -2 -42 -8 -45 -5 -4 -6 -12 -2 -18 4 -7 8 -117 9 -245 2 -205 0 -234 -14 -239 -9 -4 -18 -1 -20 5 -2 7 -9 12 -15 12 -7 0 -20 14 -29 30 -20 35 -40 37 -93 10 -22 -11 -45 -20 -52 -20 -17 0 -43 64 -43 107 0 39 -24 92 -43 94 -6 1 -210 0 -452 -1 l-440 -1 -26 -25 c-20 -19 -28 -41 -37 -102 -23 -147 -24 -222 -5 -286 24 -78 47 -89 201 -88 128 1 145 -9 96 -55 -26 -24 -34 -26 -119 -24 -49 1 -119 3 -155 5 -39 3 -81 -2 -105 -10 -52 -18 -172 -28 -210 -16 -20 5 -31 16 -33 30 -3 21 0 22 92 22 120 0 120 0 105 137 -6 54 -12 134 -14 178 -2 44 -9 114 -14 155 -24 183 -34 260 -41 325 -14 139 -59 391 -76 433 -9 23 -11 40 -4 51 8 17 46 19 482 26 260 4 552 9 648 11 158 3 175 5 181 21 23 65 28 99 28 185 0 122 13 169 60 206 52 41 66 44 111 20 27 -15 47 -35 61 -65 18 -37 25 -43 43 -37 43 13 50 28 38 86 -6 30 -9 103 -6 168 3 63 5 136 4 162 0 29 7 58 20 80 11 19 23 63 26 97 5 47 12 66 29 79 12 9 30 40 40 67 10 28 24 59 31 70 9 15 10 40 4 95 -5 41 -9 81 -10 88 0 7 12 12 29 12 42 0 64 10 52 24 -5 6 -11 36 -14 66 -7 69 -24 150 -27 130z m-1946 -1622 c14 -173 28 -286 36 -312 6 -16 10 -57 10 -91 0 -34 7 -84 15 -111 8 -27 15 -71 15 -99 1 -27 6 -72 11 -100 5 -27 14 -105 19 -173 5 -68 14 -140 20 -160 5 -20 10 -65 10 -99 l0 -62 -52 -6 c-74 -9 -122 -3 -124 15 -5 39 -36 263 -46 325 -17 107 -22 446 -9 540 7 44 16 121 21 170 22 210 25 225 49 225 16 0 20 -10 25 -62z m1631 -954 c32 -34 32 -69 0 -98 -31 -28 -32 -40 -4 -33 12 3 29 1 39 -5 14 -9 15 -16 6 -40 -9 -25 -8 -32 7 -42 22 -17 22 -29 0 -48 -15 -13 -61 -16 -241 -21 l-223 -5 3 31 c3 31 5 32 60 38 56 6 108 30 108 49 0 6 9 19 21 31 23 23 51 117 38 125 -5 3 -9 12 -9 20 0 10 14 14 55 14 30 0 55 -4 55 -10 0 -16 27 -12 34 5 8 22 24 18 51 -11z m-1601 -294 c19 -7 24 -14 19 -27 -7 -22 -33 -53 -44 -53 -13 0 -20 36 -13 64 7 30 5 29 38 16z m1727 -387 c6 -16 15 -36 20 -45 5 -10 9 -29 9 -43 0 -30 138 -255 184 -300 17 -17 49 -52 71 -78 21 -27 49 -60 62 -73 13 -14 29 -40 37 -58 7 -17 25 -40 40 -49 17 -11 26 -26 26 -43 0 -15 7 -27 18 -30 65 -21 72 -27 72 -55 0 -19 6 -30 20 -34 21 -7 120 -100 120 -113 0 -4 8 -15 18 -24 9 -9 22 -23 28 -30 15 -18 58 -53 88 -73 14 -10 26 -22 26 -28 0 -14 108 -117 123 -117 7 0 22 -11 35 -24 12 -13 41 -34 65 -46 23 -12 46 -28 50 -36 4 -8 17 -14 28 -14 11 0 22 -7 25 -15 4 -10 20 -15 46 -15 22 0 53 -8 70 -17 28 -17 30 -17 42 0 13 16 14 16 28 -5 14 -20 18 -21 43 -10 24 11 30 10 46 -4 18 -16 20 -16 32 1 13 17 16 17 62 -4 49 -22 49 -22 76 -2 23 17 28 18 41 5 11 -11 39 -15 109 -15 131 0 142 1 159 15 8 7 31 19 50 26 19 7 40 20 47 28 6 7 16 11 22 8 5 -4 20 4 34 16 13 13 39 34 57 48 47 35 120 111 120 125 0 6 14 24 30 40 17 16 30 38 30 49 0 12 9 27 20 34 11 7 20 23 20 36 0 18 6 25 23 28 15 2 23 11 25 29 2 14 23 47 47 75 25 27 45 58 45 70 0 11 11 31 25 44 14 13 25 27 25 32 0 5 16 30 35 55 19 25 35 52 35 59 0 16 46 19 55 4 3 -5 1 -10 -5 -10 -19 0 -33 -45 -22 -67 8 -15 7 -25 -3 -39 -7 -11 -18 -56 -24 -100 -12 -83 -24 -129 -47 -181 -8 -17 -14 -35 -14 -39 0 -12 -72 -154 -81 -160 -5 -3 -9 -12 -9 -21 0 -8 -13 -35 -30 -60 -16 -24 -30 -46 -30 -48 0 -13 -98 -137 -148 -188 -57 -58 -150 -127 -172 -127 -7 0 -24 -6 -38 -14 -55 -28 -103 -46 -125 -46 -12 0 -31 -7 -41 -15 -11 -8 -31 -15 -45 -15 -14 0 -39 -7 -55 -15 -15 -8 -40 -15 -55 -15 -14 0 -42 -5 -61 -11 -19 -6 -57 -15 -85 -19 -27 -5 -79 -13 -115 -19 -287 -45 -392 -52 -471 -27 -24 7 -71 22 -104 32 -33 10 -69 24 -80 31 -11 7 -29 13 -41 13 -12 0 -35 7 -51 14 -15 8 -71 36 -123 62 -106 51 -195 119 -297 227 -63 67 -151 188 -173 240 -6 12 -14 29 -19 37 -30 53 -71 177 -71 216 0 16 -7 54 -15 84 -8 30 -15 75 -15 100 0 25 -7 97 -15 160 -8 63 -16 180 -19 260 -3 80 -8 189 -12 243 -6 80 -4 101 7 108 22 14 29 11 40 -18z m543 -589 c10 -26 7 -34 -12 -34 -25 0 -31 7 -25 31 6 23 28 25 37 3z m1766 -306 c0 -18 -5 -28 -14 -28 -19 0 -23 7 -31 54 l-8 39 26 -19 c17 -12 26 -29 27 -46z m-64 7 c-3 -8 0 -26 6 -40 13 -29 8 -38 -15 -29 -21 8 -20 84 1 84 9 0 12 -6 8 -15z m-1340 -40 c4 -8 17 -15 30 -15 15 0 24 -6 24 -16 0 -9 9 -18 21 -21 29 -8 23 -57 -8 -61 -19 -3 -23 1 -23 22 0 23 -4 25 -36 23 -32 -2 -38 2 -46 26 -6 15 -7 34 -4 42 7 19 35 19 42 0z m1314 -70 c0 -28 -24 -34 -34 -9 -8 20 1 34 20 34 8 0 14 -10 14 -25z"/> <path d="M1690 2460 c0 -5 9 -10 20 -10 11 0 20 5 20 10 0 6 -9 10 -20 10 -11 0 -20 -4 -20 -10z"/> <path d="M3106 341 c-16 -25 48 -81 93 -81 32 0 25 19 -14 36 -19 8 -41 23 -47 34 -14 22 -24 25 -32 11z"/> <path d="M3421 314 c-15 -11 -35 -15 -61 -11 -40 5 -118 -29 -109 -48 4 -10 59 -12 94 -2 11 3 28 6 37 6 9 1 23 7 30 15 8 7 24 17 37 21 12 3 20 12 18 18 -6 18 -21 18 -46 1z"/> <path d="M2218 5114 c-5 -4 -8 -14 -8 -22 0 -9 -7 -24 -17 -34 -14 -16 -14 -18 -1 -18 23 0 40 25 36 55 -2 15 -6 23 -10 19z"/> <path d="M927 5052 c-21 -23 -22 -52 -2 -52 8 0 15 7 15 15 0 8 9 19 20 25 11 6 20 15 20 20 0 17 -36 11 -53 -8z"/> <path d="M738 4844 c-59 -63 -85 -114 -59 -114 9 0 27 28 49 75 6 11 22 27 36 34 14 8 26 23 26 33 0 10 -2 18 -4 18 -3 0 -24 -21 -48 -46z"/> <path d="M2352 4788 c-14 -14 2 -48 22 -48 20 0 37 25 30 44 -7 19 -35 21 -52 4z"/> <path d="M555 4617 c-32 -44 -59 -107 -50 -115 7 -7 31 24 60 80 14 26 29 49 35 53 14 9 13 25 -2 25 -7 -1 -26 -20 -43 -43z"/> <path d="M427 4417 c-35 -69 -68 -137 -86 -177 -7 -14 -22 -43 -35 -64 -14 -22 -32 -64 -41 -95 -10 -31 -23 -63 -29 -71 -16 -20 -48 -148 -41 -160 13 -21 25 -8 25 26 0 21 8 47 20 61 11 14 20 36 20 49 0 13 5 24 10 24 6 0 10 11 10 25 0 14 7 28 15 31 8 4 15 12 15 20 0 8 9 31 20 51 11 21 20 43 20 50 0 7 5 13 10 13 6 0 10 7 10 15 0 9 14 41 30 72 17 31 30 62 30 69 0 8 4 14 9 14 10 0 51 79 51 98 0 7 -7 12 -15 12 -9 0 -29 -27 -48 -63z"/> <path d="M5490 4341 c0 -11 5 -23 10 -26 6 -4 10 5 10 19 0 14 -4 26 -10 26 -5 0 -10 -9 -10 -19z"/> <path d="M5520 4287 c0 -14 7 -30 15 -37 8 -7 15 -20 15 -29 1 -22 37 -68 46 -58 7 7 -53 134 -68 143 -5 3 -8 -6 -8 -19z"/> <path d="M2858 4213 c-17 -8 -25 -19 -21 -28 6 -18 4 -18 39 0 16 8 38 15 49 15 11 0 15 3 10 9 -19 17 -50 19 -77 4z"/> <path d="M3080 4163 c-27 -22 -43 -26 -111 -29 -93 -4 -112 -11 -78 -30 15 -9 40 -11 70 -8 27 4 55 1 68 -5 16 -9 26 -9 42 0 24 12 98 -10 134 -41 35 -29 113 -70 134 -70 12 0 31 6 42 13 17 10 23 10 26 0 5 -14 43 -18 43 -5 -2 29 -29 104 -41 114 -9 7 -23 25 -32 41 -19 29 -47 37 -47 12 0 -8 -9 -19 -21 -25 -23 -13 -69 -6 -69 10 0 6 -20 10 -45 10 -30 0 -47 5 -51 14 -10 26 -33 26 -64 -1z"/> <path d="M2452 4058 c-27 -27 -7 -48 48 -48 31 0 55 23 46 45 -7 18 -76 21 -94 3z"/> <path d="M2070 4047 c0 -8 8 -22 19 -31 17 -16 19 -16 24 5 3 13 4 26 1 31 -8 13 -44 9 -44 -5z"/> <path d="M2360 3966 c-6 -19 -8 -46 -4 -60 4 -15 1 -32 -6 -41 -10 -11 -8 -20 9 -41 l21 -27 0 40 c0 21 5 44 11 50 13 13 4 99 -11 108 -5 3 -13 -10 -20 -29z"/> <path d="M1702 3898 c5 -15 37 -18 41 -3 1 6 -9 12 -22 13 -16 3 -22 -1 -19 -10z"/> <path d="M2870 3869 c0 -7 -11 -8 -29 -4 -30 6 -130 -33 -176 -69 -17 -13 -18 -17 -5 -26 19 -12 45 -4 98 31 24 16 48 29 53 29 13 0 99 39 99 45 0 3 -9 5 -20 5 -11 0 -20 -5 -20 -11z"/> <path d="M4587 3839 c-32 -48 -33 -75 -6 -108 16 -20 28 -24 69 -22 26 1 67 8 90 16 48 17 156 20 193 6 20 -8 29 -6 42 9 17 19 17 20 -9 30 -15 5 -40 10 -56 10 -19 0 -36 9 -50 28 -20 25 -27 27 -101 27 -65 1 -83 5 -108 23 -17 12 -32 22 -34 22 -2 0 -15 -18 -30 -41z"/> <path d="M3234 3829 c-8 -14 5 -29 28 -29 12 0 54 -35 107 -90 89 -91 119 -110 105 -67 -14 45 -66 104 -127 144 -66 43 -103 57 -113 42z"/> <path d="M3537 3824 c-8 -8 1 -24 14 -24 5 0 9 7 9 15 0 15 -12 20 -23 9z"/> <path d="M2930 3799 c-150 -18 -262 -75 -235 -119 3 -5 23 -10 45 -10 29 0 48 8 80 35 43 36 78 45 84 23 26 -91 30 -100 65 -115 35 -15 90 -25 143 -26 28 0 88 51 88 75 0 19 20 38 41 38 9 0 39 -24 67 -52 95 -98 148 -136 163 -121 25 25 -225 243 -277 243 -9 0 -30 7 -47 14 -37 17 -138 24 -217 15z m160 -74 c0 -7 -19 -15 -42 -19 -23 -4 -48 -12 -55 -18 -24 -20 -27 2 -3 27 32 34 100 41 100 10z m50 -8 c0 -21 -12 -28 -27 -16 -19 16 -16 29 7 29 11 0 20 -6 20 -13z m20 -66 c0 -20 -25 -35 -42 -25 -5 3 -2 14 9 24 23 24 33 24 33 1z"/> <path d="M3580 3767 c0 -6 46 -59 99 -116 l34 -36 -7 39 c-9 47 -51 106 -76 106 -10 0 -25 3 -34 6 -9 3 -16 4 -16 1z"/> <path d="M1740 3679 c0 -11 5 -17 10 -14 6 3 10 13 10 21 0 8 -4 14 -10 14 -5 0 -10 -9 -10 -21z"/> <path d="M4265 3665 c-53 -19 -115 -85 -115 -122 0 -52 14 -59 49 -23 17 18 31 38 31 44 0 6 22 22 48 34 27 13 64 33 83 44 l34 22 -25 7 c-38 11 -61 9 -105 -6z"/> <path d="M5000 3673 c0 -5 12 -16 25 -26 23 -17 25 -17 34 2 8 15 7 20 -5 25 -22 8 -54 7 -54 -1z"/> <path d="M4380 3575 c-19 -7 -47 -16 -61 -19 -19 -4 -32 -18 -47 -48 -34 -74 -35 -86 -12 -98 30 -16 39 -10 61 39 19 43 19 43 -1 48 -11 3 -20 12 -20 19 0 15 36 19 44 5 3 -5 14 -7 24 -5 20 5 54 -58 62 -116 5 -33 7 -35 55 -42 27 -4 66 -14 86 -23 50 -23 68 -17 104 32 20 27 38 42 53 42 24 1 72 -42 72 -65 0 -7 9 -15 20 -19 11 -3 52 -33 92 -66 l73 -59 3 27 c2 15 -2 32 -10 38 -7 5 -31 36 -53 69 -45 67 -73 89 -165 136 -36 18 -78 40 -95 49 -23 12 -58 15 -147 14 -96 -1 -118 2 -118 13 0 8 10 14 23 14 35 0 67 11 61 21 -8 13 -64 10 -104 -6z m204 -85 c16 -6 26 -17 26 -30 0 -18 -6 -20 -55 -20 -40 0 -56 -4 -63 -16 -9 -16 -32 -12 -32 6 0 4 13 22 29 39 30 32 53 37 95 21z"/> <path d="M5625 3555 c-5 -2 -45 -9 -88 -16 -103 -17 -109 -28 -64 -117 47 -91 67 -137 67 -154 1 -15 27 -53 38 -53 4 0 6 -15 4 -33 -2 -27 1 -35 17 -39 11 -3 23 -14 26 -24 4 -10 11 -19 16 -19 5 0 9 -7 9 -15 0 -18 -29 -9 -47 14 -6 9 -15 12 -20 8 -4 -5 0 -14 10 -21 9 -7 17 -22 17 -34 0 -11 7 -33 14 -49 8 -15 18 -37 22 -48 7 -17 8 -16 12 9 2 16 -1 33 -7 39 -6 6 -11 22 -11 35 0 22 1 22 22 8 12 -9 27 -28 34 -43 l12 -28 1 34 c1 20 -13 58 -34 98 -19 36 -35 72 -35 81 0 8 -20 56 -44 106 -46 95 -78 185 -70 197 2 4 22 10 44 14 22 4 42 11 46 16 3 5 18 9 34 9 15 0 36 3 45 6 35 14 -32 32 -70 19z"/> <path d="M4791 3531 c13 -10 33 -21 45 -25 30 -9 85 -66 101 -104 17 -40 44 -73 55 -66 11 7 10 52 -2 59 -5 3 -10 16 -10 27 0 23 -63 88 -86 88 -8 0 -14 5 -14 10 0 6 -13 10 -29 10 -17 0 -33 5 -36 10 -3 6 -16 10 -27 10 -20 0 -20 -1 3 -19z"/> <path d="M3680 3505 c-14 -17 -5 -48 13 -43 14 5 23 58 9 58 -5 0 -15 -7 -22 -15z"/> <path d="M1616 3378 c-10 -84 -7 -194 6 -225 6 -15 14 -55 18 -88 4 -33 17 -76 29 -95 l21 -35 -1 105 c-1 58 -6 116 -12 130 -5 14 -16 40 -24 58 -8 18 -11 37 -8 42 8 13 -6 160 -15 160 -4 0 -10 -24 -14 -52z"/> <path d="M918 3374 c-17 -17 -6 -24 36 -24 25 0 48 -4 51 -10 9 -15 51 -12 65 5 7 9 10 19 6 23 -10 10 -149 15 -158 6z"/> <path d="M520 3346 c0 -27 25 -53 35 -36 9 15 -3 47 -20 54 -11 4 -15 -2 -15 -18z"/> <path d="M4173 3354 c-3 -8 2 -38 11 -66 9 -28 16 -59 16 -70 0 -10 5 -16 10 -13 6 3 10 19 10 34 0 15 5 42 11 60 9 27 8 35 -6 51 -22 24 -43 26 -52 4z"/> <path d="M1710 3290 c0 -11 5 -20 10 -20 6 0 10 -11 10 -25 0 -20 5 -25 25 -25 35 0 32 25 -6 61 -37 34 -39 35 -39 9z"/> <path d="M1207 3284 c-11 -11 -8 -52 3 -59 6 -3 7 -17 4 -31 -7 -28 13 -34 23 -6 3 9 15 25 25 35 17 17 18 21 5 40 -15 22 -47 34 -60 21z"/> <path d="M4698 3283 c-18 -4 -24 -24 -12 -36 8 -7 64 13 64 23 0 7 -28 22 -33 19 -1 -1 -10 -3 -19 -6z"/> <path d="M1016 3241 c-9 -13 57 -91 74 -88 18 3 18 60 0 82 -14 16 -65 20 -74 6z"/> <path d="M4440 3186 c0 -10 9 -16 21 -16 24 0 21 23 -4 28 -10 2 -17 -3 -17 -12z"/> <path d="M4795 3099 c-8 -23 -1 -34 14 -24 13 8 15 45 2 45 -5 0 -13 -9 -16 -21z"/> <path d="M1150 3080 c-8 -5 -27 -10 -41 -10 -14 0 -34 -8 -43 -19 -16 -17 -16 -19 1 -25 11 -5 23 0 33 14 12 17 25 21 51 18 24 -2 34 1 34 11 0 18 -16 23 -35 11z"/> <path d="M542 3057 c-28 -30 -28 -37 3 -37 25 0 51 32 40 50 -9 15 -20 12 -43 -13z"/> <path d="M976 3011 c-3 -4 3 -16 13 -25 21 -19 37 -7 27 19 -6 16 -32 20 -40 6z"/> <path d="M620 2965 c0 -29 15 -33 29 -6 11 20 5 31 -16 31 -7 0 -13 -11 -13 -25z"/> <path d="M740 2965 c56 -18 83 -19 78 -2 -3 7 -27 13 -64 14 l-59 2 45 -14z"/> <path d="M507 2957 c-3 -7 -1 -20 3 -28 7 -11 10 -10 16 4 4 10 2 23 -3 28 -7 7 -12 6 -16 -4z"/> <path d="M922 2948 c5 -15 28 -18 29 -3 0 6 -7 12 -17 13 -10 3 -15 -1 -12 -10z"/> <path d="M5666 2898 c9 -48 21 -55 20 -12 -1 21 -7 39 -14 42 -8 2 -10 -6 -6 -30z"/> <path d="M1732 2828 c6 -18 28 -21 28 -4 0 9 -7 16 -16 16 -9 0 -14 -5 -12 -12z"/> <path d="M4230 2766 c0 -14 5 -26 10 -26 6 0 10 9 10 19 0 11 -4 23 -10 26 -6 4 -10 -5 -10 -19z"/> <path d="M3316 2728 c-9 -12 -16 -33 -16 -46 0 -23 0 -23 25 -5 24 18 33 57 16 68 -5 3 -17 -5 -25 -17z"/> <path d="M3427 2516 l-16 -24 75 -11 c41 -6 83 -11 93 -11 45 0 141 -79 141 -115 0 -8 4 -15 9 -15 5 0 23 -11 39 -25 28 -23 35 -24 117 -20 107 6 125 11 125 36 0 25 -45 48 -62 31 -13 -13 -52 -15 -123 -5 -43 5 -49 10 -64 44 -20 43 -95 100 -163 124 -24 8 -68 15 -99 15 -49 0 -59 -3 -72 -24z"/> <path d="M3320 2486 c0 -15 18 -31 26 -23 7 7 -7 37 -17 37 -5 0 -9 -6 -9 -14z"/> <path d="M4138 2452 c-9 -4 -26 -19 -37 -33 -18 -24 -19 -28 -5 -33 29 -11 95 -6 124 9 32 17 40 49 14 59 -20 8 -74 7 -96 -2z"/> <path d="M1970 2384 c-15 -39 -12 -54 10 -54 26 0 46 46 29 66 -17 21 -28 17 -39 -12z"/> <path d="M2018 2310 c-28 -31 -47 -75 -39 -89 13 -21 48 4 56 39 4 16 11 32 16 35 13 9 11 35 -3 34 -7 0 -21 -9 -30 -19z"/> <path d="M1950 2286 c0 -8 5 -18 10 -21 6 -3 10 1 10 9 0 8 -4 18 -10 21 -5 3 -10 -1 -10 -9z"/> <path d="M979 2244 c-19 -23 6 -35 40 -18 14 8 36 14 49 14 12 0 22 5 22 10 0 17 -96 12 -111 -6z"/> <path d="M3578 2238 c0 -2 -2 -41 -3 -87 -1 -53 1 -77 7 -67 5 9 16 16 25 16 12 0 14 7 9 38 -4 20 -7 52 -6 70 0 22 -5 32 -15 32 -8 0 -16 -1 -17 -2z"/> <path d="M3417 2213 c-12 -12 -7 -41 8 -47 8 -3 15 -18 15 -34 0 -33 44 -83 53 -59 3 8 1 20 -4 28 -5 8 -9 29 -9 47 0 18 -5 42 -10 53 -10 19 -40 26 -53 12z"/> <path d="M3733 2209 c-24 -9 -29 -20 -15 -33 4 -4 7 -17 7 -29 0 -12 7 -23 17 -25 12 -2 20 7 27 35 13 46 -1 66 -36 52z"/> <path d="M2046 2178 c-19 -27 -21 -51 -3 -45 6 2 12 11 12 19 0 8 6 23 14 32 8 9 9 16 3 16 -6 0 -18 -10 -26 -22z"/> <path d="M3852 2188 c-19 -19 -14 -35 14 -42 28 -8 64 0 64 14 0 11 -40 40 -55 40 -6 0 -16 -5 -23 -12z"/> <path d="M5300 2175 c0 -23 32 -85 42 -79 11 7 10 54 -1 54 -5 0 -13 9 -16 20 -7 23 -25 27 -25 5z"/> <path d="M3267 2133 c-14 -13 -6 -61 12 -77 37 -34 57 16 25 62 -16 23 -26 27 -37 15z"/> <path d="M4109 2127 c6 -8 8 -17 4 -20 -10 -11 -81 -8 -88 3 -8 13 -55 13 -55 0 0 -5 17 -18 38 -27 33 -16 38 -23 43 -63 4 -28 7 -34 7 -17 2 32 27 37 37 7 9 -29 33 -25 41 8 4 15 14 32 21 37 21 16 7 60 -23 74 -33 14 -39 14 -25 -2z"/> <path d="M2960 2116 c0 -8 7 -16 15 -20 10 -4 15 1 15 14 0 11 -7 20 -15 20 -8 0 -15 -6 -15 -14z"/> <path d="M3391 2068 c-1 -21 3 -38 8 -38 17 0 19 15 6 45 l-13 30 -1 -37z"/> <path d="M2096 2083 c-11 -11 -6 -23 9 -23 8 0 15 4 15 9 0 13 -16 22 -24 14z"/> <path d="M3000 2064 c0 -14 4 -23 10 -19 6 3 10 15 10 26 0 10 -4 19 -10 19 -5 0 -10 -12 -10 -26z"/> <path d="M3622 2074 c4 -21 22 -23 26 -1 2 10 -3 17 -13 17 -10 0 -15 -6 -13 -16z"/> <path d="M2187 2073 c-10 -9 -9 -71 1 -77 13 -8 52 41 52 64 0 14 -7 20 -23 20 -13 0 -27 -3 -30 -7z"/> <path d="M3146 2053 c-11 -34 2 -51 40 -51 22 0 34 5 34 14 0 8 -7 14 -16 14 -9 0 -24 10 -34 22 -17 22 -17 22 -24 1z"/> <path d="M3847 2046 c-22 -33 -29 -68 -18 -85 8 -13 15 -12 51 4 53 24 63 42 42 77 -20 35 -54 36 -75 4z"/> <path d="M2777 2042 c-23 -25 -21 -32 7 -32 31 0 56 28 35 41 -20 12 -24 11 -42 -9z"/> <path d="M2066 2028 c-3 -13 -7 -35 -10 -50 -3 -16 -9 -38 -12 -50 -7 -28 23 -101 37 -92 7 4 9 45 7 110 -3 98 -12 132 -22 82z"/> <path d="M5360 2015 c0 -19 5 -35 10 -35 6 0 10 16 10 35 0 19 -4 35 -10 35 -5 0 -10 -16 -10 -35z"/> <path d="M2000 2010 c0 -20 25 -38 36 -27 8 7 -15 47 -26 47 -6 0 -10 -9 -10 -20z"/> <path d="M2967 2023 c-13 -13 -7 -53 8 -53 10 0 15 10 15 30 0 29 -9 38 -23 23z"/> <path d="M4230 2021 c0 -16 51 -71 66 -71 17 0 19 51 2 68 -14 14 -68 16 -68 3z"/> <path d="M2317 1973 c-4 -3 -7 -16 -7 -29 0 -22 1 -22 30 -7 25 12 29 18 19 29 -12 15 -31 18 -42 7z"/> <path d="M2603 1937 c-8 -13 -2 -15 46 -19 27 -2 46 1 48 8 5 14 -86 24 -94 11z"/> <path d="M4391 1936 c-13 -16 -9 -20 32 -30 23 -5 27 -3 27 14 0 11 -4 20 -9 20 -5 0 -16 2 -24 5 -7 3 -19 -1 -26 -9z"/> <path d="M2183 1907 c-15 -13 -36 -26 -45 -30 -19 -7 -24 -32 -8 -42 23 -14 100 48 100 82 0 19 -15 16 -47 -10z"/> <path d="M2330 1896 c0 -8 -7 -16 -15 -20 -21 -7 -19 -23 3 -30 10 -4 25 -22 32 -41 8 -19 16 -35 20 -35 3 0 11 14 18 32 14 37 0 62 -29 53 -20 -7 -26 9 -9 20 15 10 12 35 -5 35 -8 0 -15 -6 -15 -14z"/> <path d="M2892 1898 c-7 -7 -12 -19 -12 -28 0 -17 27 -23 212 -50 31 -4 62 -11 69 -16 8 -4 44 -9 81 -10 42 -2 77 -9 90 -18 12 -9 34 -16 48 -16 15 0 46 -6 71 -14 24 -7 87 -24 139 -36 94 -23 100 -23 370 -13 151 6 280 7 285 3 6 -4 29 -8 52 -7 33 0 44 4 54 24 9 17 10 26 2 34 -24 24 -176 39 -188 19 -3 -5 -24 -10 -45 -10 -21 0 -51 -5 -66 -10 -15 -6 -106 -11 -203 -11 -137 -1 -184 3 -212 15 -20 8 -57 15 -83 14 -25 0 -52 4 -59 10 -7 6 -33 14 -57 17 -25 4 -54 11 -65 16 -11 5 -49 10 -85 11 -60 3 -65 5 -68 27 -3 22 -7 23 -52 19 -26 -3 -56 0 -66 5 -16 9 -157 36 -189 37 -6 0 -16 -5 -23 -12z"/> <path d="M5379 1760 c42 -41 71 -51 71 -25 0 12 -86 65 -106 65 -3 0 12 -18 35 -40z"/> <path d="M2700 1764 c0 -9 5 -14 12 -12 18 6 21 28 4 28 -9 0 -16 -7 -16 -16z"/> <path d="M2534 1702 c-15 -10 -23 -37 -15 -50 10 -17 56 22 48 42 -7 17 -16 20 -33 8z"/> <path d="M4641 1618 c-5 -13 -5 -27 0 -32 11 -12 26 2 31 28 5 28 -21 32 -31 4z"/> <path d="M5277 1619 c-10 -11 -15 -24 -12 -29 10 -16 23 -11 30 10 4 13 15 20 31 20 14 0 22 4 19 10 -10 16 -49 10 -68 -11z"/> <path d="M2638 1603 c-21 -14 -38 -32 -38 -39 0 -20 22 -29 34 -13 6 8 30 21 54 28 29 10 42 20 42 33 0 27 -47 22 -92 -9z"/> <path d="M1573 1573 c15 -2 37 -2 50 0 12 2 0 4 -28 4 -27 0 -38 -2 -22 -4z"/> <path d="M1683 1573 c9 -2 25 -2 35 0 9 3 1 5 -18 5 -19 0 -27 -2 -17 -5z"/> <path d="M4821 1550 c-7 -4 -22 -5 -32 -3 -16 4 -19 0 -19 -25 0 -21 -6 -31 -20 -35 -26 -7 -26 -46 -1 -79 11 -13 21 -37 23 -53 4 -37 23 -35 23 3 0 28 37 62 84 77 22 7 29 25 10 25 -7 0 -9 9 -6 21 3 11 3 27 0 34 -8 22 -48 44 -62 35z"/> <path d="M1440 1530 c-7 -14 -7 -20 0 -20 5 0 10 5 10 10 0 6 9 10 20 10 11 0 20 5 20 10 0 18 -39 10 -50 -10z"/> <path d="M4597 1543 c-16 -15 -6 -30 18 -25 29 5 34 32 7 32 -10 0 -22 -3 -25 -7z"/> <path d="M2675 1530 c3 -5 15 -10 25 -10 10 0 22 5 25 10 4 6 -7 10 -25 10 -18 0 -29 -4 -25 -10z"/> <path d="M1354 1506 c-11 -8 -31 -16 -44 -19 -19 -3 -17 -5 10 -5 19 -1 43 5 53 12 33 25 16 36 -19 12z"/> <path d="M4916 1512 c-14 -13 -4 -41 20 -57 22 -14 28 -15 35 -4 5 8 9 19 9 26 0 13 -56 44 -64 35z"/> <path d="M4680 1483 c0 -6 -3 -18 -6 -27 -4 -11 -1 -16 10 -16 9 0 16 6 16 13 0 16 -20 46 -20 30z"/> <path d="M1630 1471 c0 -16 19 -23 40 -16 30 10 24 25 -10 25 -16 0 -30 -4 -30 -9z"/> <path d="M5005 1450 c-4 -6 -3 -16 3 -22 6 -6 12 -6 17 2 4 6 3 16 -3 22 -6 6 -12 6 -17 -2z"/> <path d="M3272 1438 c-17 -17 -15 -53 3 -68 9 -7 27 -10 44 -7 20 4 31 2 35 -8 9 -24 41 -17 95 22 2 1 -2 9 -9 18 -17 21 -48 19 -46 -2 0 -12 -7 -19 -21 -21 -19 -3 -23 1 -23 21 0 43 -51 72 -78 45z"/> <path d="M2691 1390 l-43 -40 25 -9 c14 -5 27 -16 30 -23 4 -10 9 -8 17 5 7 10 21 22 33 26 11 4 21 16 22 27 2 10 6 27 10 37 6 14 2 17 -21 17 -19 -1 -44 -14 -73 -40z"/> <path d="M5092 1411 c2 -7 7 -12 11 -12 12 1 9 15 -3 20 -7 2 -11 -2 -8 -8z"/> <path d="M2592 1370 c-16 -21 -19 -30 -9 -30 21 0 52 39 41 50 -7 7 -18 0 -32 -20z"/> <path d="M2820 1385 c0 -8 5 -15 10 -15 6 0 10 7 10 15 0 8 -4 15 -10 15 -5 0 -10 -7 -10 -15z"/> <path d="M3490 1384 c-9 -3 -22 -19 -29 -36 -13 -28 -12 -32 4 -45 11 -7 27 -11 36 -8 11 4 18 -1 22 -15 5 -20 37 -29 37 -11 0 15 31 42 41 36 5 -4 9 -24 9 -46 0 -51 22 -61 59 -25 15 14 30 23 34 20 4 -4 44 3 90 16 78 20 86 21 114 7 23 -12 33 -13 42 -4 6 6 26 10 44 9 20 -1 41 5 56 18 25 21 23 50 -4 50 -8 0 -24 5 -34 12 -15 9 -36 8 -98 -6 -54 -11 -87 -14 -104 -8 -13 5 -33 6 -44 2 -25 -9 -124 -3 -139 9 -6 5 -27 11 -46 14 -19 3 -44 7 -55 10 -11 3 -27 3 -35 1z"/> <path d="M5243 1374 c-7 -19 2 -28 22 -21 19 8 19 23 0 31 -9 3 -18 -1 -22 -10z"/> <path d="M2900 1315 c0 -16 6 -25 15 -25 9 0 15 9 15 25 0 16 -6 25 -15 25 -9 0 -15 -9 -15 -25z"/> <path d="M5307 1314 c-4 -4 -7 -18 -7 -30 0 -13 -4 -26 -10 -29 -5 -3 -10 -13 -10 -21 0 -8 5 -14 10 -14 6 0 10 8 10 18 0 9 10 22 23 27 25 11 30 48 7 53 -9 1 -19 0 -23 -4z"/> <path d="M4803 1273 c-8 -20 0 -24 35 -17 36 7 34 19 -4 27 -16 3 -27 0 -31 -10z"/> <path d="M3560 1236 c0 -8 3 -22 6 -31 5 -13 8 -14 15 -3 14 21 10 48 -6 48 -8 0 -15 -6 -15 -14z"/> <path d="M2835 1222 c-16 -9 -34 -21 -40 -28 -5 -7 -19 -14 -30 -17 -11 -3 -1 -5 22 -6 23 0 45 4 48 9 7 11 48 14 58 4 3 -3 1 -14 -6 -25 -6 -10 -8 -21 -5 -24 11 -12 46 14 52 39 7 28 40 40 57 20 17 -21 29 -17 29 11 0 28 2 27 -60 15 -31 -6 -52 -4 -70 4 -20 10 -30 10 -55 -2z"/> <path d="M4804 1216 c-10 -27 8 -36 41 -21 24 11 26 14 10 14 -12 1 -26 6 -33 13 -9 9 -13 7 -18 -6z"/> <path d="M3285 1180 c-8 -12 20 -24 35 -15 6 3 8 11 5 16 -8 12 -32 12 -40 -1z"/> <path d="M4890 1176 c0 -10 9 -16 21 -16 24 0 21 23 -4 28 -10 2 -17 -3 -17 -12z"/> <path d="M5207 1160 c-9 -11 -17 -24 -17 -28 0 -4 -30 -39 -66 -77 -37 -39 -73 -80 -81 -92 -9 -13 -22 -23 -29 -23 -8 0 -14 -9 -14 -20 0 -39 35 -20 112 62 43 45 78 86 78 90 0 5 16 31 35 58 29 42 32 50 17 50 -10 0 -25 -9 -35 -20z"/> <path d="M3782 1148 c5 -15 37 -18 41 -3 1 6 -9 12 -22 13 -16 3 -22 -1 -19 -10z"/> <path d="M4826 1152 c-14 -24 26 -192 46 -192 6 0 8 10 4 23 -3 12 -6 47 -6 77 0 56 -29 116 -44 92z"/> <path d="M2795 1130 c-25 -10 -50 -38 -42 -47 4 -3 29 -8 56 -11 l50 -4 -17 36 c-17 39 -17 39 -47 26z"/> <path d="M3600 1050 c0 -5 9 -10 21 -10 11 0 17 5 14 10 -3 6 -13 10 -21 10 -8 0 -14 -4 -14 -10z"/> <path d="M3144 1016 c-3 -8 -19 -18 -34 -21 -19 -4 -35 -17 -44 -36 -13 -26 -6 -43 9 -19 3 6 18 10 33 10 19 0 31 8 40 28 23 47 24 52 13 52 -7 0 -14 -6 -17 -14z"/> <path d="M3236 1013 c-8 -21 10 -41 24 -27 11 11 3 44 -10 44 -4 0 -11 -8 -14 -17z"/> <path d="M3856 1001 c-3 -4 1 -17 9 -27 14 -18 14 -18 15 9 0 26 -13 36 -24 18z"/> <path d="M3205 971 c-6 -11 9 -23 19 -14 9 9 7 23 -3 23 -6 0 -12 -4 -16 -9z"/> <path d="M4620 879 c0 -24 23 -21 28 4 2 10 -3 17 -12 17 -10 0 -16 -9 -16 -21z"/> <path d="M3450 851 c0 -17 5 -31 10 -31 6 0 10 11 10 24 0 14 -4 28 -10 31 -6 4 -10 -7 -10 -24z"/> <path d="M3500 803 c0 -5 5 -15 10 -23 8 -12 10 -11 10 8 0 12 -4 22 -10 22 -5 0 -10 -3 -10 -7z"/> <path d="M3814 774 c3 -9 6 -18 6 -20 0 -2 9 -4 20 -4 18 0 19 3 10 20 -13 24 -45 28 -36 4z"/> <path d="M4810 740 c-18 -31 -30 -40 -51 -40 -19 0 -30 -6 -34 -21 -10 -30 -4 -31 43 -8 45 22 92 71 92 95 0 27 -25 13 -50 -26z"/> <path d="M3417 763 c-12 -12 -7 -53 6 -53 23 0 37 21 26 42 -10 19 -21 23 -32 11z"/> <path d="M3621 721 c-12 -21 1 -71 18 -71 12 0 12 78 0 85 -4 3 -13 -3 -18 -14z"/> <path d="M4565 555 c-27 -22 -28 -24 -9 -25 19 0 54 28 54 43 0 13 -15 7 -45 -18z"/> <path d="M2000 210 c0 -5 9 -10 21 -10 11 0 17 5 14 10 -3 6 -13 10 -21 10 -8 0 -14 -4 -14 -10z"/> </g> </svg> 